<svg width="40" height="30" viewBox="0 0 40 30" fill="none" xmlns="http://www.w3.org/2000/svg">
<path d="M32.7273 7.27273L25.4545 14.5455H30.9091C30.9091 20.5636 26.0182 25.4545 20 25.4545C18.1636 25.4545 16.4182 25 14.9091 24.1818L12.2545 26.8364C14.4909 28.2545 17.1455 29.0909 20 29.0909C28.0364 29.0909 34.5455 22.5818 34.5455 14.5455H40L32.7273 7.27273ZM9.09091 14.5455C9.09091 8.52727 13.9818 3.63636 20 3.63636C21.8364 3.63636 23.5818 4.09091 25.0909 4.90909L27.7455 2.25454C25.5091 0.836363 22.8545 0 20 0C11.9636 0 5.45455 6.50909 5.45455 14.5455H0L7.27273 21.8182L14.5455 14.5455H9.09091Z" fill="white"/>
</svg>
